# xmcd CD database file
#
# Track frame offsets:
#	187
#	9137
#	18467
#	35470
#	48375
#	55787
#	67645
#	84925
#	101307
#	123235
#	134075
#	153767
#	172605
#	184977
#	201515
#	221927
#
# Disc length: 3225 seconds
#
# Revision: 2
# Processed by: cddbd v1.5.2PL0 Copyright (c) Steve Scherf et al.
# Submitted via: CDex 1.70beta2
#
DISCID=c90c9710
DTITLE=安全地帯 - LIVE
DYEAR=1992
DGENRE=Country
TTITLE0=パーティー
TTITLE1=ふたりで踊ろう
TTITLE2=銀色のピストル
TTITLE3=好きさ
TTITLE4=シルエット
TTITLE5=海と少年
TTITLE6=あのとき....
TTITLE7=じれったい
TTITLE8=メドレー ～こしゃくなTEL・眠れない隣人・熱視線～
TTITLE9=どーだい
TTITLE10=Friend
TTITLE11=ほほえみ
TTITLE12=今夜はYES
TTITLE13=To me
TTITLE14=悲しみにさよなら
TTITLE15=ゆびきり
EXTD=YEAR: 1992
EXTT0=
EXTT1=
EXTT2=
EXTT3=
EXTT4=
EXTT5=
EXTT6=
EXTT7=
EXTT8=
EXTT9=
EXTT10=
EXTT11=
EXTT12=
EXTT13=
EXTT14=
EXTT15=
PLAYORDER=
